<?xml version="1.0" encoding="UTF-8"?>
<!DOCTYPE svg PUBLIC "-//W3C//DTD SVG 1.1//EN" "http://www.w3.org/Graphics/SVG/1.1/DTD/svg11.dtd">
<svg xmlns="http://www.w3.org/2000/svg" version="1.1" width="1080px" height="1080px" style="shape-rendering:geometricPrecision; text-rendering:geometricPrecision; image-rendering:optimizeQuality; fill-rule:evenodd; clip-rule:evenodd" xmlns:xlink="http://www.w3.org/1999/xlink">
<g><path style="opacity:0.81" fill="#908d56" d="M 722.5,203.5 C 722.5,224.5 722.5,245.5 722.5,266.5C 721.7,255.831 721.033,244.998 720.5,234C 721.68,226.484 721.68,218.984 720.5,211.5C 720.964,208.651 721.631,205.984 722.5,203.5 Z"/></g>
<g><path style="opacity:1" fill="#c2963a" d="M 722.5,203.5 C 723.264,211.008 723.931,218.675 724.5,226.5C 723.887,239.988 723.22,253.321 722.5,266.5C 722.5,245.5 722.5,224.5 722.5,203.5 Z"/></g>
<g><path style="opacity:1" fill="#f5bf55" d="M 656.5,225.5 C 658.833,225.5 661.167,225.5 663.5,225.5C 662.498,236.178 662.831,246.845 664.5,257.5C 664.291,258.994 663.624,260.161 662.5,261C 665.028,262.017 665.028,263.184 662.5,264.5C 662.846,265.696 663.346,265.696 664,264.5C 664.667,267.5 664.667,270.5 664,273.5C 663.804,271.714 662.971,270.381 661.5,269.5C 660.833,272.5 660.167,275.5 659.5,278.5C 658.808,277.975 658.308,277.308 658,276.5C 657.687,287.939 657.521,298.939 657.5,309.5C 657.81,312.713 657.477,315.713 656.5,318.5C 656.5,287.5 656.5,256.5 656.5,225.5 Z"/></g>
<g><path style="opacity:0.999" fill="#827440" d="M 349.5,203.5 C 350.832,213.812 351.499,224.478 351.5,235.5C 351.167,246.167 350.833,256.833 350.5,267.5C 349.5,246.177 349.167,224.844 349.5,203.5 Z"/></g>
<g><path style="opacity:0.749" fill="#c1c476" d="M 665.5,204.5 C 662.5,204.5 659.5,204.5 656.5,204.5C 655.728,321.001 655.061,437.668 654.5,554.5C 653.334,438.001 653.167,321.334 654,204.5C 658.519,203.185 662.352,203.185 665.5,204.5 Z"/></g>
<g><path style="opacity:1" fill="#f7c356" d="M 656.5,204.5 C 659.5,204.5 662.5,204.5 665.5,204.5C 665.5,239.167 665.5,273.833 665.5,308.5C 664.596,309.209 664.263,310.209 664.5,311.5C 662.473,311.662 660.473,311.495 658.5,311C 659.712,309.893 659.379,309.393 657.5,309.5C 657.521,298.939 657.687,287.939 658,276.5C 658.308,277.308 658.808,277.975 659.5,278.5C 660.167,275.5 660.833,272.5 661.5,269.5C 662.971,270.381 663.804,271.714 664,273.5C 664.667,270.5 664.667,267.5 664,264.5C 663.346,265.696 662.846,265.696 662.5,264.5C 665.028,263.184 665.028,262.017 662.5,261C 663.624,260.161 664.291,258.994 664.5,257.5C 662.831,246.845 662.498,236.178 663.5,225.5C 661.167,225.5 658.833,225.5 656.5,225.5C 656.5,218.5 656.5,211.5 656.5,204.5 Z"/></g>
<g><path style="opacity:1" fill="#f9de62" d="M 544.5,297.5 C 542.585,297.216 540.919,297.549 539.5,298.5C 528.167,298.5 516.833,298.5 505.5,298.5C 452.176,297.881 398.842,297.881 345.5,298.5C 345.5,302.833 345.5,307.167 345.5,311.5C 345.5,369.833 345.5,428.167 345.5,486.5C 345.5,518.833 345.5,551.167 345.5,583.5C 345.5,615.5 345.5,647.5 345.5,679.5C 345.5,679.833 345.5,680.167 345.5,680.5C 344.5,553.001 344.167,425.334 344.5,297.5C 413.412,296.596 480.078,296.596 544.5,297.5 Z"/></g>
<g><path style="opacity:1" fill="#f7d459" d="M 603.5,298.5 C 603.167,298.5 602.833,298.5 602.5,298.5C 584.326,298.83 566.326,298.497 548.5,297.5C 565.617,297.612 582.784,297.278 600,296.5C 601.699,296.387 602.866,297.053 603.5,298.5 Z"/></g>
<g><path style="opacity:1" fill="#e6b245" d="M 505.5,298.5 C 503.782,299.224 501.948,299.891 500,300.5C 491.559,299.185 483.059,299.185 474.5,300.5C 482.647,302.568 491.313,303.735 500.5,304C 478.5,304.667 456.5,305.333 434.5,306C 461.831,306.5 489.165,306.667 516.5,306.5C 545.167,306.5 573.833,306.5 602.5,306.5C 602.5,303.833 602.5,301.167 602.5,298.5C 602.833,298.5 603.167,298.5 603.5,298.5C 603.5,301.5 603.5,304.5 603.5,307.5C 520.16,306.836 437.16,307.503 354.5,309.5C 354.5,310.167 354.5,310.833 354.5,311.5C 351.324,311.108 348.324,311.108 345.5,311.5C 345.5,307.167 345.5,302.833 345.5,298.5C 398.842,297.881 452.176,297.881 505.5,298.5 Z"/></g>
<g><path style="opacity:1" fill="#eab648" d="M 505.5,298.5 C 516.833,298.5 528.167,298.5 539.5,298.5C 542.711,298.012 545.544,298.679 548,300.5C 549.666,299.66 549.833,300.16 548.5,302C 554.5,302.333 560.5,302.667 566.5,303C 562.911,303.207 559.411,303.707 556,304.5C 555.667,304.167 555.333,303.833 555,303.5C 541.575,304.324 528.075,304.824 514.5,305C 515.416,305.278 516.082,305.778 516.5,306.5C 489.165,306.667 461.831,306.5 434.5,306C 456.5,305.333 478.5,304.667 500.5,304C 491.313,303.735 482.647,302.568 474.5,300.5C 483.059,299.185 491.559,299.185 500,300.5C 501.948,299.891 503.782,299.224 505.5,298.5 Z"/></g>
<g><path style="opacity:1" fill="#e3ac40" d="M 718.5,297.5 C 721.5,297.5 724.5,297.5 727.5,297.5C 727.5,322.167 727.5,346.833 727.5,371.5C 725.856,371.286 724.356,371.62 723,372.5C 721.656,379.996 720.156,387.33 718.5,394.5C 718.5,362.167 718.5,329.833 718.5,297.5 Z"/></g>
<g><path style="opacity:0.828" fill="#d2b854" d="M 313.5,301.5 C 292.833,302.167 272.167,302.833 251.5,303.5C 250.957,303.44 250.624,303.107 250.5,302.5C 271.489,301.5 292.489,301.167 313.5,301.5 Z"/></g>
<g><path style="opacity:0.841" fill="#9d9155" d="M 822.5,301.5 C 801.833,302.167 781.167,302.833 760.5,303.5C 759.957,303.44 759.624,303.107 759.5,302.5C 763.122,301.675 766.789,301.175 770.5,301C 788.005,300.171 805.338,300.338 822.5,301.5 Z"/></g>
<g><path style="opacity:0.831" fill="#a27d36" d="M 313.5,301.5 C 314.043,301.56 314.376,301.893 314.5,302.5C 293.511,303.5 272.511,303.833 251.5,303.5C 272.167,302.833 292.833,302.167 313.5,301.5 Z"/></g>
<g><path style="opacity:1" fill="#eeba4d" d="M 539.5,298.5 C 540.919,297.549 542.585,297.216 544.5,297.5C 545.833,297.5 547.167,297.5 548.5,297.5C 566.326,298.497 584.326,298.83 602.5,298.5C 602.5,301.167 602.5,303.833 602.5,306.5C 573.833,306.5 545.167,306.5 516.5,306.5C 516.082,305.778 515.416,305.278 514.5,305C 528.075,304.824 541.575,304.324 555,303.5C 555.333,303.833 555.667,304.167 556,304.5C 559.411,303.707 562.911,303.207 566.5,303C 560.5,302.667 554.5,302.333 548.5,302C 549.833,300.16 549.666,299.66 548,300.5C 545.544,298.679 542.711,298.012 539.5,298.5 Z"/></g>
<g><path style="opacity:1" fill="#755e34" d="M 822.5,301.5 C 823.774,302.189 823.774,303.023 822.5,304C 801.663,304.829 780.996,304.663 760.5,303.5C 781.167,302.833 801.833,302.167 822.5,301.5 Z"/></g>
<g><path style="opacity:0.004" fill="#1f180a" d="M 357.5,308.5 C 358.833,309.167 358.833,309.167 357.5,308.5 Z"/></g>
<g><path style="opacity:0.004" fill="#1f1908" d="M 359.5,308.5 C 360.833,309.167 360.833,309.167 359.5,308.5 Z"/></g>
<g><path style="opacity:0.004" fill="#1f180a" d="M 406.5,309.5 C 408.628,308.371 410.961,308.204 413.5,309C 411.19,309.497 408.857,309.663 406.5,309.5 Z"/></g>
<g><path style="opacity:0.004" fill="#1f1908" d="M 420.5,308.5 C 421.833,309.167 421.833,309.167 420.5,308.5 Z"/></g>
<g><path style="opacity:0.004" fill="#1f1908" d="M 428.5,308.5 C 429.833,309.167 429.833,309.167 428.5,308.5 Z"/></g>
<g><path style="opacity:0.004" fill="#1f180a" d="M 430.5,309.5 C 430.897,308.475 431.563,308.308 432.5,309C 431.906,309.464 431.239,309.631 430.5,309.5 Z"/></g>
<g><path style="opacity:0.004" fill="#1f180a" d="M 440.5,309.5 C 440.897,308.475 441.563,308.308 442.5,309C 441.906,309.464 441.239,309.631 440.5,309.5 Z"/></g>
<g><path style="opacity:0.004" fill="#20190b" d="M 451.5,309.5 C 452.946,308.387 454.613,308.22 456.5,309C 454.866,309.494 453.199,309.66 451.5,309.5 Z"/></g>
<g><path style="opacity:0.004" fill="#1f180a" d="M 458.5,308.5 C 459.833,309.167 459.833,309.167 458.5,308.5 Z"/></g>
<g><path style="opacity:0.004" fill="#1f190a" d="M 465.5,309.5 C 468.64,308.359 471.973,308.192 475.5,309C 472.183,309.498 468.85,309.665 465.5,309.5 Z"/></g>
<g><path style="opacity:0.004" fill="#1f1a09" d="M 477.5,309.5 C 477.897,308.475 478.563,308.308 479.5,309C 478.906,309.464 478.239,309.631 477.5,309.5 Z"/></g>
<g><path style="opacity:0.004" fill="#1f180a" d="M 487.5,308.5 C 488.833,309.167 488.833,309.167 487.5,308.5 Z"/></g>
<g><path style="opacity:0.004" fill="#1f180a" d="M 498.5,308.5 C 499.833,309.167 499.833,309.167 498.5,308.5 Z"/></g>
<g><path style="opacity:0.004" fill="#1f1a0b" d="M 506.5,309.5 C 507.251,308.427 508.251,308.26 509.5,309C 508.552,309.483 507.552,309.649 506.5,309.5 Z"/></g>
<g><path style="opacity:0.004" fill="#1f180a" d="M 518.5,309.5 C 518.897,308.475 519.563,308.308 520.5,309C 519.906,309.464 519.239,309.631 518.5,309.5 Z"/></g>
<g><path style="opacity:0.004" fill="#1f1908" d="M 535.5,308.5 C 536.833,309.167 536.833,309.167 535.5,308.5 Z"/></g>
<g><path style="opacity:0.004" fill="#1f1908" d="M 557.5,308.5 C 558.833,309.167 558.833,309.167 557.5,308.5 Z"/></g>
<g><path style="opacity:0.004" fill="#1f180a" d="M 565.5,308.5 C 566.833,309.167 566.833,309.167 565.5,308.5 Z"/></g>
<g><path style="opacity:0.004" fill="#110f05" d="M 604.5,308.5 C 605.833,309.167 605.833,309.167 604.5,308.5 Z"/></g>
<g><path style="opacity:0.004" fill="#f0f372" d="M 727.5,297.5 C 724.5,297.5 721.5,297.5 718.5,297.5C 717.5,420.332 717.167,543.332 717.5,666.5C 716.334,543.334 716.167,420.001 717,296.5C 721.079,295.371 725.245,295.204 729.5,296C 728.956,296.717 728.289,297.217 727.5,297.5 Z"/></g>
<g><path style="opacity:1" fill="#fac558" d="M 665.5,308.5 C 665.5,367.833 665.5,427.167 665.5,486.5C 664.042,483.403 662.709,480.07 661.5,476.5C 662.236,474.459 663.069,472.459 664,470.5C 663.848,466.593 664.015,463.093 664.5,460C 662.954,458.56 662.121,456.727 662,454.5C 661.533,427.906 659.699,401.572 656.5,375.5C 656.5,356.5 656.5,337.5 656.5,318.5C 657.477,315.713 657.81,312.713 657.5,309.5C 659.379,309.393 659.712,309.893 658.5,311C 660.473,311.495 662.473,311.662 664.5,311.5C 664.263,310.209 664.596,309.209 665.5,308.5 Z"/></g>
<g><path style="opacity:1" fill="#fbe264" d="M 656.5,204.5 C 656.5,211.5 656.5,218.5 656.5,225.5C 656.5,256.5 656.5,287.5 656.5,318.5C 656.5,337.5 656.5,356.5 656.5,375.5C 656.5,406.5 656.5,437.5 656.5,468.5C 656.5,490.5 656.5,512.5 656.5,534.5C 656.832,543.857 656.498,553.19 655.5,562.5C 654.702,562.043 654.369,561.376 654.5,560.5C 654.5,558.5 654.5,556.5 654.5,554.5C 655.061,437.668 655.728,321.001 656.5,204.5 Z"/></g>
<g><path style="opacity:1" fill="#fbc65a" d="M 354.5,311.5 C 354.5,369.833 354.5,428.167 354.5,486.5C 351.5,486.5 348.5,486.5 345.5,486.5C 345.5,428.167 345.5,369.833 345.5,311.5C 348.324,311.108 351.324,311.108 354.5,311.5 Z"/></g>
<g><path style="opacity:0.071" fill="#3c434e" d="M 444.5,361.5 C 444.167,361.5 443.833,361.5 443.5,361.5C 442.624,361.631 441.957,361.298 441.5,360.5C 443.208,358.457 445.208,356.79 447.5,355.5C 448.167,355.667 448.833,355.833 449.5,356C 447.627,357.704 445.96,359.537 444.5,361.5 Z"/></g>
<g><path style="opacity:0.024" fill="#38404a" d="M 440.5,364.5 C 440.833,365.167 441.167,365.833 441.5,366.5C 440.732,367.263 440.232,368.263 440,369.5C 439.106,364.623 439.272,362.956 440.5,364.5 Z"/></g>
<g><path style="opacity:0.985" fill="#f7c459" d="M 530.5,437.5 C 530.703,439.044 531.37,440.378 532.5,441.5C 531.047,443.644 531.38,445.477 533.5,447C 531.153,448.086 531.153,449.419 533.5,451C 532.678,453.565 533.511,455.732 536,457.5C 537.049,456.483 538.216,456.316 539.5,457C 538.833,457.333 538.167,457.667 537.5,458C 540.13,461.632 543.13,464.965 546.5,468C 546.272,468.399 545.938,468.565 545.5,468.5C 511.701,435.201 478.035,401.701 444.5,368C 443.473,367.487 442.473,366.987 441.5,366.5C 441.167,365.833 440.833,365.167 440.5,364.5C 441.833,363.833 442.833,362.833 443.5,361.5C 443.833,361.5 444.167,361.5 444.5,361.5C 446.957,360.272 449.29,359.105 451.5,358C 478.035,384.368 504.368,410.868 530.5,437.5 Z"/></g>
<g><path style="opacity:0.024" fill="#3a434f" d="M 441.5,370.5 C 442.833,371.167 442.833,371.167 441.5,370.5 Z"/></g>
<g><path style="opacity:1" fill="#f9c458" d="M 727.5,371.5 C 727.5,404.833 727.5,438.167 727.5,471.5C 724.5,471.5 721.5,471.5 718.5,471.5C 718.5,445.833 718.5,420.167 718.5,394.5C 720.156,387.33 721.656,379.996 723,372.5C 724.356,371.62 725.856,371.286 727.5,371.5 Z"/></g>
<g><path style="opacity:0.024" fill="#0a0804" d="M 357.5,309.5 C 357.667,433.5 357.5,557.5 357,681.5C 356.167,557.333 356.334,433.333 357.5,309.5 Z"/></g>
<g><path style="opacity:1" fill="#fac65a" d="M 407.5,391.5 C 408.302,392.952 408.802,394.618 409,396.5C 411.155,395.317 413.155,395.65 415,397.5C 415.781,398.944 415.614,400.277 414.5,401.5C 412.678,400.571 411.345,401.238 410.5,403.5C 411.328,404.415 412.328,405.081 413.5,405.5C 416.607,402.497 419.107,403.497 421,408.5C 421.333,407.5 421.667,406.5 422,405.5C 422.585,407.129 423.419,408.629 424.5,410C 424.265,410.873 423.931,411.707 423.5,412.5C 421.423,413.885 419.423,415.218 417.5,416.5C 416.502,439.661 416.169,462.994 416.5,486.5C 413.5,486.5 410.5,486.5 407.5,486.5C 407.5,454.833 407.5,423.167 407.5,391.5 Z"/></g>
<g><path style="opacity:0.994" fill="#f2c058" d="M 407.5,389.5 C 408.473,389.987 409.473,390.487 410.5,391C 432.566,413.447 454.9,435.947 477.5,458.5C 475.393,458.278 473.726,457.278 472.5,455.5C 471.833,456.833 471.167,458.167 470.5,459.5C 469.808,458.975 469.308,458.308 469,457.5C 468.25,458.126 467.416,458.626 466.5,459C 468.116,459.615 469.449,460.615 470.5,462C 469.733,463.47 469.067,464.97 468.5,466.5C 451.426,449.757 434.426,433.091 417.5,416.5C 419.423,415.218 421.423,413.885 423.5,412.5C 423.931,411.707 424.265,410.873 424.5,410C 423.419,408.629 422.585,407.129 422,405.5C 421.667,406.5 421.333,407.5 421,408.5C 419.107,403.497 416.607,402.497 413.5,405.5C 412.328,405.081 411.328,404.415 410.5,403.5C 411.345,401.238 412.678,400.571 414.5,401.5C 415.614,400.277 415.781,398.944 415,397.5C 413.155,395.65 411.155,395.317 409,396.5C 408.802,394.618 408.302,392.952 407.5,391.5C 407.5,390.833 407.5,390.167 407.5,389.5 Z"/></g>
<g><path style="opacity:1" fill="#f6c154" d="M 656.5,375.5 C 659.699,401.572 661.533,427.906 662,454.5C 662.121,456.727 662.954,458.56 664.5,460C 664.015,463.093 663.848,466.593 664,470.5C 663.069,472.459 662.236,474.459 661.5,476.5C 662.709,480.07 664.042,483.403 665.5,486.5C 665.5,511.833 665.5,537.167 665.5,562.5C 664.186,565.277 663.186,568.277 662.5,571.5C 661.749,570.624 661.249,569.624 661,568.5C 657.526,569.928 657.026,569.428 659.5,567C 658.833,566.667 658.167,566.333 657.5,566C 657.798,562.404 657.798,558.738 657.5,555C 658.773,551.709 659.773,548.376 660.5,545C 659.714,540.3 659.381,535.634 659.5,531C 661.747,525.056 662.414,519.222 661.5,513.5C 662.025,512.808 662.692,512.308 663.5,512C 660.443,505.448 658.776,498.615 658.5,491.5C 659.15,480.458 659.483,472.791 659.5,468.5C 658.5,468.5 657.5,468.5 656.5,468.5C 656.5,437.5 656.5,406.5 656.5,375.5 Z"/></g>
<g><path style="opacity:0.991" fill="#f2c057" d="M 477.5,458.5 C 485.833,466.167 493.833,474.167 501.5,482.5C 501.539,483.583 501.873,484.583 502.5,485.5C 497.164,486.527 492.164,486.527 487.5,485.5C 480.833,479.5 474.5,473.167 468.5,466.5C 469.067,464.97 469.733,463.47 470.5,462C 469.449,460.615 468.116,459.615 466.5,459C 467.416,458.626 468.25,458.126 469,457.5C 469.308,458.308 469.808,458.975 470.5,459.5C 471.167,458.167 471.833,456.833 472.5,455.5C 473.726,457.278 475.393,458.278 477.5,458.5 Z"/></g>
<g><path style="opacity:1" fill="#f2bf55" d="M 530.5,437.5 C 545.167,451.5 559.5,465.833 573.5,480.5C 573.5,481.5 573.5,482.5 573.5,483.5C 569.434,483.307 565.434,483.64 561.5,484.5C 555.833,479.5 550.5,474.167 545.5,468.5C 545.938,468.565 546.272,468.399 546.5,468C 543.13,464.965 540.13,461.632 537.5,458C 538.167,457.667 538.833,457.333 539.5,457C 538.216,456.316 537.049,456.483 536,457.5C 533.511,455.732 532.678,453.565 533.5,451C 531.153,449.419 531.153,448.086 533.5,447C 531.38,445.477 531.047,443.644 532.5,441.5C 531.37,440.378 530.703,439.044 530.5,437.5 Z"/></g>
<g><path style="opacity:1" fill="#dca63b" d="M 658.5,491.5 C 658.667,502.505 658.5,513.505 658,524.5C 657.821,528.025 657.321,531.359 656.5,534.5C 656.5,512.5 656.5,490.5 656.5,468.5C 657.5,468.5 658.5,468.5 659.5,468.5C 659.483,472.791 659.15,480.458 658.5,491.5 Z"/></g>
<g><path style="opacity:1" fill="#e1ad40" d="M 718.5,471.5 C 721.5,471.5 724.5,471.5 727.5,471.5C 727.5,482.167 727.5,492.833 727.5,503.5C 724.5,503.5 721.5,503.5 718.5,503.5C 718.5,492.833 718.5,482.167 718.5,471.5 Z"/></g>
<g><path style="opacity:1" fill="#f4c054" d="M 718.5,503.5 C 721.5,503.5 724.5,503.5 727.5,503.5C 727.5,530.167 727.5,556.833 727.5,583.5C 724.5,583.5 721.5,583.5 718.5,583.5C 718.5,556.833 718.5,530.167 718.5,503.5 Z"/></g>
<g><path style="opacity:1" fill="#f7c256" d="M 345.5,486.5 C 348.5,486.5 351.5,486.5 354.5,486.5C 354.5,523.833 354.5,561.167 354.5,598.5C 353.512,593.36 353.179,588.026 353.5,582.5C 350.721,582.279 348.054,582.612 345.5,583.5C 345.5,551.167 345.5,518.833 345.5,486.5 Z"/></g>
<g><path style="opacity:1" fill="#f8c357" d="M 407.5,495.5 C 410.5,495.5 413.5,495.5 416.5,495.5C 416.5,525.5 416.5,555.5 416.5,585.5C 414.938,580.357 411.938,579.357 407.5,582.5C 407.5,553.5 407.5,524.5 407.5,495.5 Z"/></g>
<g><path style="opacity:0.994" fill="#eebb53" d="M 501.5,482.5 C 525.167,505.5 548.5,528.833 571.5,552.5C 568.186,551.127 564.686,550.127 561,549.5C 560.167,549.667 559.333,549.833 558.5,550C 559.451,550.718 559.617,551.551 559,552.5C 556.881,552.493 555.047,551.326 553.5,549C 552.563,548.308 551.897,548.475 551.5,549.5C 529.833,528.5 508.5,507.167 487.5,485.5C 492.164,486.527 497.164,486.527 502.5,485.5C 501.873,484.583 501.539,483.583 501.5,482.5 Z"/></g>
<g><path style="opacity:1" fill="#fae166" d="M 718.5,297.5 C 718.5,329.833 718.5,362.167 718.5,394.5C 718.5,420.167 718.5,445.833 718.5,471.5C 718.5,482.167 718.5,492.833 718.5,503.5C 718.5,530.167 718.5,556.833 718.5,583.5C 718.5,600.167 718.5,616.833 718.5,633.5C 719.146,646.212 718.48,658.545 716.5,670.5C 716.5,670.167 716.5,669.833 716.5,669.5C 716.557,668.391 716.89,667.391 717.5,666.5C 717.167,543.332 717.5,420.332 718.5,297.5 Z"/></g>
<g><path style="opacity:1" fill="#d7a948" d="M 417.5,416.5 C 417.833,535.668 417.5,654.668 416.5,773.5C 416.5,755.5 416.5,737.5 416.5,719.5C 416.5,674.833 416.5,630.167 416.5,585.5C 416.5,555.5 416.5,525.5 416.5,495.5C 413.5,495.5 410.5,495.5 407.5,495.5C 407.5,492.5 407.5,489.5 407.5,486.5C 410.5,486.5 413.5,486.5 416.5,486.5C 416.169,462.994 416.502,439.661 417.5,416.5 Z"/></g>
<g><path style="opacity:0.992" fill="#f1be55" d="M 573.5,480.5 C 593.24,499.74 612.74,519.074 632,538.5C 632.464,539.094 632.631,539.761 632.5,540.5C 632.5,545.5 632.5,550.5 632.5,555.5C 608.5,532.167 584.833,508.5 561.5,484.5C 565.434,483.64 569.434,483.307 573.5,483.5C 573.5,482.5 573.5,481.5 573.5,480.5 Z"/></g>
<g><path style="opacity:0.251" fill="#ced37f" d="M 344.5,297.5 C 344.167,425.334 344.5,553.001 345.5,680.5C 345.44,681.043 345.107,681.376 344.5,681.5C 343.168,553.334 343.168,425.334 344.5,297.5 Z"/></g>
<g><path style="opacity:0.383" fill="#b89141" d="M 354.5,309.5 C 355.5,432.999 355.833,556.666 355.5,680.5C 352.167,680.5 348.833,680.5 345.5,680.5C 345.5,680.167 345.5,679.833 345.5,679.5C 348.5,679.5 351.5,679.5 354.5,679.5C 354.5,652.5 354.5,625.5 354.5,598.5C 354.5,561.167 354.5,523.833 354.5,486.5C 354.5,428.167 354.5,369.833 354.5,311.5C 354.5,310.833 354.5,310.167 354.5,309.5 Z"/></g>
<g><path style="opacity:0.998" fill="#eeba4d" d="M 658.5,491.5 C 658.776,498.615 660.443,505.448 663.5,512C 662.692,512.308 662.025,512.808 661.5,513.5C 662.414,519.222 661.747,525.056 659.5,531C 659.381,535.634 659.714,540.3 660.5,545C 659.773,548.376 658.773,551.709 657.5,555C 657.798,558.738 657.798,562.404 657.5,566C 658.167,566.333 658.833,566.667 659.5,567C 657.026,569.428 657.526,569.928 661,568.5C 661.249,569.624 661.749,570.624 662.5,571.5C 663.186,568.277 664.186,565.277 665.5,562.5C 665.666,571.173 665.5,579.84 665,588.5C 653.965,577.632 643.131,566.632 632.5,555.5C 632.5,550.5 632.5,545.5 632.5,540.5C 640.184,546.854 647.518,553.521 654.5,560.5C 654.369,561.376 654.702,562.043 655.5,562.5C 656.498,553.19 656.832,543.857 656.5,534.5C 657.321,531.359 657.821,528.025 658,524.5C 658.5,513.505 658.667,502.505 658.5,491.5 Z"/></g>
<g><path style="opacity:0.846" fill="#f3bf56" d="M 571.5,552.5 C 580.5,560.833 589.167,569.5 597.5,578.5C 598.028,579.847 598.195,581.181 598,582.5C 593.736,582.746 589.236,582.746 584.5,582.5C 573.167,571.833 562.167,560.833 551.5,549.5C 551.897,548.475 552.563,548.308 553.5,549C 555.047,551.326 556.881,552.493 559,552.5C 559.617,551.551 559.451,550.718 558.5,550C 559.333,549.833 560.167,549.667 561,549.5C 564.686,550.127 568.186,551.127 571.5,552.5 Z"/></g>
<g><path style="opacity:0.994" fill="#efbc53" d="M 597.5,578.5 C 608.833,589.167 619.833,600.167 630.5,611.5C 628.167,614.833 625.833,618.167 623.5,621.5C 610.167,608.833 597.167,595.833 584.5,582.5C 589.236,582.746 593.736,582.746 598,582.5C 598.195,581.181 598.028,579.847 597.5,578.5 Z"/></g>
<g><path style="opacity:1" fill="#f8c458" d="M 718.5,583.5 C 721.5,583.5 724.5,583.5 727.5,583.5C 727.5,600.167 727.5,616.833 727.5,633.5C 724.5,633.5 721.5,633.5 718.5,633.5C 718.5,616.833 718.5,600.167 718.5,583.5 Z"/></g>
<g><path style="opacity:1" fill="#f1be51" d="M 416.5,585.5 C 416.5,630.167 416.5,674.833 416.5,719.5C 413.722,717.975 410.722,716.975 407.5,716.5C 407.5,671.833 407.5,627.167 407.5,582.5C 411.938,579.357 414.938,580.357 416.5,585.5 Z"/></g>
<g><path style="opacity:0.118" fill="#6f5828" d="M 630.5,611.5 C 631.404,612.209 631.737,613.209 631.5,614.5C 628.833,616.5 626.5,618.833 624.5,621.5C 624.167,621.5 623.833,621.5 623.5,621.5C 625.833,618.167 628.167,614.833 630.5,611.5 Z"/></g>
<g><path style="opacity:0.055" fill="#0a0703" d="M 631.5,614.5 C 630.5,618.167 628.167,620.5 624.5,621.5C 626.5,618.833 628.833,616.5 631.5,614.5 Z"/></g>
<g><path style="opacity:1" fill="#f3bf54" d="M 354.5,598.5 C 354.5,625.5 354.5,652.5 354.5,679.5C 351.5,679.5 348.5,679.5 345.5,679.5C 345.5,647.5 345.5,615.5 345.5,583.5C 348.054,582.612 350.721,582.279 353.5,582.5C 353.179,588.026 353.512,593.36 354.5,598.5 Z"/></g>
<g><path style="opacity:1" fill="#f8f063" d="M 716.5,669.5 C 716.5,669.833 716.5,670.167 716.5,670.5C 694.5,670.5 672.5,670.5 650.5,670.5C 590.167,670.5 529.833,670.5 469.5,670.5C 469.5,673.5 469.5,676.5 469.5,679.5C 469.217,680.289 468.717,680.956 468,681.5C 467.501,677.514 467.334,673.514 467.5,669.5C 550.5,669.5 633.5,669.5 716.5,669.5 Z"/></g>
<g><path style="opacity:1" fill="#f2c051" d="M 650.5,670.5 C 650.492,673.545 650.159,676.545 649.5,679.5C 610.167,679.5 570.833,679.5 531.5,679.5C 547.235,678.826 563.069,678.16 579,677.5C 591.041,678.223 602.874,678.557 614.5,678.5C 614.244,676.208 614.577,674.041 615.5,672C 567.168,671.5 518.834,671.333 470.5,671.5C 470.5,674.167 470.5,676.833 470.5,679.5C 470.167,679.5 469.833,679.5 469.5,679.5C 469.5,676.5 469.5,673.5 469.5,670.5C 529.833,670.5 590.167,670.5 650.5,670.5 Z"/></g>
<g><path style="opacity:1" fill="#ecb94b" d="M 531.5,679.5 C 511.167,679.5 490.833,679.5 470.5,679.5C 470.5,676.833 470.5,674.167 470.5,671.5C 518.834,671.333 567.168,671.5 615.5,672C 614.577,674.041 614.244,676.208 614.5,678.5C 602.874,678.557 591.041,678.223 579,677.5C 563.069,678.16 547.235,678.826 531.5,679.5 Z"/></g>
<g><path style="opacity:1" fill="#edb94d" d="M 718.5,633.5 C 721.5,633.5 724.5,633.5 727.5,633.5C 727.5,648.833 727.5,664.167 727.5,679.5C 701.5,679.5 675.5,679.5 649.5,679.5C 650.159,676.545 650.492,673.545 650.5,670.5C 672.5,670.5 694.5,670.5 716.5,670.5C 718.48,658.545 719.146,646.212 718.5,633.5 Z"/></g>
<g><path style="opacity:0.923" fill="#e3ce58" d="M 822.5,675.5 C 801.5,675.5 780.5,675.5 759.5,675.5C 766.668,674.689 774.001,674.022 781.5,673.5C 795.325,674.096 808.992,674.762 822.5,675.5 Z"/></g>
<g><path style="opacity:1" fill="#926c1b" d="M 250.5,674.5 C 271.844,674.167 293.177,674.5 314.5,675.5C 313.672,676.415 312.672,677.081 311.5,677.5C 290.851,677.182 270.518,676.182 250.5,674.5 Z"/></g>
<g><path style="opacity:0.258" fill="#3a3125" d="M 759.5,675.5 C 780.5,675.5 801.5,675.5 822.5,675.5C 808.827,676.247 794.993,676.913 781,677.5C 773.665,677.005 766.498,676.338 759.5,675.5 Z"/></g>
<g><path style="opacity:0.749" fill="#e9e36a" d="M 407.5,389.5 C 407.5,390.167 407.5,390.833 407.5,391.5C 407.5,423.167 407.5,454.833 407.5,486.5C 407.5,489.5 407.5,492.5 407.5,495.5C 407.5,524.5 407.5,553.5 407.5,582.5C 407.5,627.167 407.5,671.833 407.5,716.5C 407.5,735.5 407.5,754.5 407.5,773.5C 406.778,773.918 406.278,774.584 406,775.5C 405.833,711.167 405.667,646.833 405.5,582.5C 405.5,517.83 406.167,453.497 407.5,389.5 Z"/></g>
<g><path style="opacity:1" fill="#e1ad3e" d="M 407.5,716.5 C 410.722,716.975 413.722,717.975 416.5,719.5C 416.5,737.5 416.5,755.5 416.5,773.5C 413.5,773.5 410.5,773.5 407.5,773.5C 407.5,754.5 407.5,735.5 407.5,716.5 Z"/></g>
<g><path style="opacity:0.996" fill="#4b3c23" d="M 350.5,711.5 C 351.828,732.67 351.828,754.004 350.5,775.5C 349.893,775.376 349.56,775.043 349.5,774.5C 350.497,753.673 350.831,732.673 350.5,711.5 Z"/></g>
<g><path style="opacity:0.396" fill="#9b9850" d="M 350.5,711.5 C 350.831,732.673 350.497,753.673 349.5,774.5C 348.865,770.581 348.532,766.581 348.5,762.5C 348.985,745.332 349.652,728.332 350.5,711.5 Z"/></g>
<g><path style="opacity:0.937" fill="#b2a357" d="M 721.5,711.5 C 722.832,721.645 723.499,732.145 723.5,743C 723.167,753.5 722.833,764 722.5,774.5C 721.5,753.511 721.167,732.511 721.5,711.5 Z"/></g>
<g><path style="opacity:0.051" fill="#27303c" d="M 337.5,814.5 C 338.833,815.167 338.833,815.167 337.5,814.5 Z"/></g>
<g><path style="opacity:0.008" fill="#3d424c" d="M 484.5,815.5 C 484.5,815.167 484.5,814.833 484.5,814.5C 488.475,814.486 491.808,815.819 494.5,818.5C 491.167,817.5 487.833,816.5 484.5,815.5 Z"/></g>
<g><path style="opacity:0.024" fill="#283039" d="M 845.5,814.5 C 846.833,815.167 846.833,815.167 845.5,814.5 Z"/></g>
<g><path style="opacity:1" fill="#e7e7e7" d="M 242.5,815.5 C 234.833,816.167 227.167,816.833 219.5,817.5C 218.167,828.833 218.167,840.167 219.5,851.5C 222.167,851.5 224.833,851.5 227.5,851.5C 231.167,851.5 234.833,851.5 238.5,851.5C 241.228,851.829 243.562,851.163 245.5,849.5C 247.027,849.573 248.027,848.906 248.5,847.5C 248.5,846.833 248.833,846.5 249.5,846.5C 250.906,846.027 251.573,845.027 251.5,843.5C 253.045,842.77 253.878,841.437 254,839.5C 254.805,836.304 254.638,833.304 253.5,830.5C 253.25,828.326 252.25,826.659 250.5,825.5C 250.5,825.167 250.5,824.833 250.5,824.5C 250.5,823.167 251.167,822.5 252.5,822.5C 260.432,840.3 254.766,851.3 235.5,855.5C 235.855,856.522 236.522,857.189 237.5,857.5C 238.837,860.864 240.17,864.197 241.5,867.5C 241.715,869.179 241.048,870.179 239.5,870.5C 239.167,870.5 238.833,870.5 238.5,870.5C 236.893,865.348 234.893,860.348 232.5,855.5C 228.03,854.514 223.363,854.181 218.5,854.5C 218.821,860.026 218.488,865.36 217.5,870.5C 216.503,852.341 216.17,834.008 216.5,815.5C 225.167,815.5 233.833,815.5 242.5,815.5 Z"/></g>
<g><path style="opacity:0.004" fill="#29313a" d="M 339.5,815.5 C 340.833,816.167 340.833,816.167 339.5,815.5 Z"/></g>
<g><path style="opacity:0.999" fill="#fefefe" d="M 414.5,815.5 C 414.5,815.833 414.5,816.167 414.5,816.5C 401.167,816.5 387.833,816.5 374.5,816.5C 374.5,834.5 374.5,852.5 374.5,870.5C 373.503,852.341 373.17,834.008 373.5,815.5C 387.167,815.5 400.833,815.5 414.5,815.5 Z"/></g>
<g><path style="opacity:0.757" fill="#7b7f85" d="M 484.5,814.5 C 484.5,814.833 484.5,815.167 484.5,815.5C 478.378,815.268 472.378,815.935 466.5,817.5C 467.842,816.207 469.509,815.374 471.5,815C 475.821,814.501 480.154,814.334 484.5,814.5 Z"/></g>
<g><path style="opacity:0.999" fill="#eceded" d="M 896.5,855.5 C 899.167,855.5 901.833,855.5 904.5,855.5C 913.5,855.5 922.5,855.5 931.5,855.5C 932.167,842.327 932.833,828.994 933.5,815.5C 934.298,815.957 934.631,816.624 934.5,817.5C 934.667,835.17 934.5,852.836 934,870.5C 933.586,870.957 933.086,871.291 932.5,871.5C 931.508,867.217 931.174,862.884 931.5,858.5C 919.833,858.5 908.167,858.5 896.5,858.5C 896.824,862.555 896.491,866.555 895.5,870.5C 894.817,870.863 894.15,871.196 893.5,871.5C 893.167,852.821 893.5,834.155 894.5,815.5C 895.167,828.994 895.833,842.327 896.5,855.5 Z"/></g>
<g><path style="opacity:0.169" fill="#404850" d="M 242.5,815.5 C 242.5,815.167 242.5,814.833 242.5,814.5C 245.089,814.461 247.089,815.461 248.5,817.5C 246.421,817.029 244.421,816.363 242.5,815.5 Z"/></g>
<g><path style="opacity:0.063" fill="#343a45" d="M 294.5,816.5 C 294.5,817.167 294.5,817.833 294.5,818.5C 294.565,818.938 294.399,819.272 294,819.5C 292.56,818.07 292.226,816.403 293,814.5C 293.278,815.416 293.778,816.082 294.5,816.5 Z"/></g>
<g><path style="opacity:0.024" fill="#333944" d="M 761.5,814.5 C 756.808,814.924 752.475,816.424 748.5,819C 745.056,822.059 741.723,825.226 738.5,828.5C 743.27,818.671 750.937,814.005 761.5,814.5 Z"/></g>
<g><path style="opacity:0.01" fill="#333841" d="M 768.5,814.5 C 771.89,815.023 775.223,815.857 778.5,817C 780.464,818.451 781.797,820.284 782.5,822.5C 781.038,821.542 779.705,820.376 778.5,819C 774.939,817.768 771.606,816.268 768.5,814.5 Z"/></g>
<g><path style="opacity:0.993" fill="#fdfdfd" d="M 580.5,819.5 C 581.677,821.103 581.511,822.436 580,823.5C 579.5,839.163 579.333,854.83 579.5,870.5C 578.338,853.005 578.171,835.338 579,817.5C 579.717,818.044 580.217,818.711 580.5,819.5 Z"/></g>
<g><path style="opacity:0.096" fill="#303641" d="M 678.5,818.5 C 678.649,817.448 678.483,816.448 678,815.5C 676.918,817.618 675.751,819.618 674.5,821.5C 674.674,819.139 675.007,816.806 675.5,814.5C 676.833,814.5 678.167,814.5 679.5,814.5C 679.768,816.099 679.434,817.432 678.5,818.5 Z"/></g>
<g><path style="opacity:1" fill="#d0d1cf" d="M 242.5,815.5 C 244.421,816.363 246.421,817.029 248.5,817.5C 249.916,819.179 251.25,820.846 252.5,822.5C 251.167,822.5 250.5,823.167 250.5,824.5C 247.945,821.73 244.945,819.73 241.5,818.5C 234.352,817.508 227.019,817.175 219.5,817.5C 227.167,816.833 234.833,816.167 242.5,815.5 Z"/></g>
<g><path style="opacity:0.506" fill="#545961" d="M 466.5,817.5 C 466.027,818.906 465.027,819.573 463.5,819.5C 463.973,818.094 464.973,817.427 466.5,817.5 Z"/></g>
<g><path style="opacity:0.094" fill="#2f343a" d="M 494.5,818.5 C 496.027,818.427 497.027,819.094 497.5,820.5C 495.973,820.573 494.973,819.906 494.5,818.5 Z"/></g>
<g><path style="opacity:0.984" fill="#e2e2e2" d="M 761.5,814.5 C 763.833,814.5 766.167,814.5 768.5,814.5C 771.606,816.268 774.939,817.768 778.5,819C 779.705,820.376 781.038,821.542 782.5,822.5C 790.564,831.63 792.564,841.963 788.5,853.5C 787.075,855.031 786.409,854.698 786.5,852.5C 789.899,843.689 788.566,835.689 782.5,828.5C 781.5,825.5 779.5,823.5 776.5,822.5C 774.847,822.34 773.514,821.674 772.5,820.5C 771.4,819.442 770.066,818.608 768.5,818C 753.053,816.304 742.886,822.804 738,837.5C 737.333,840.833 737.333,844.167 738,847.5C 738.383,848.056 738.883,848.389 739.5,848.5C 740.5,851.167 741.5,853.833 742.5,856.5C 743.167,859.167 744.833,860.833 747.5,861.5C 748.167,861.5 748.5,861.833 748.5,862.5C 748.443,863.609 748.11,864.609 747.5,865.5C 745.938,865.267 744.605,864.6 743.5,863.5C 736.204,855.601 733.538,846.267 735.5,835.5C 736.736,833.351 737.736,831.018 738.5,828.5C 741.723,825.226 745.056,822.059 748.5,819C 752.475,816.424 756.808,814.924 761.5,814.5 Z"/></g>
<g><path style="opacity:0.306" fill="#545961" d="M 834.5,818.5 C 834.573,820.027 833.906,821.027 832.5,821.5C 832.427,819.973 833.094,818.973 834.5,818.5 Z"/></g>
<g><path style="opacity:0.133" fill="#353d47" d="M 156.5,819.5 C 155.87,821.75 154.87,823.75 153.5,825.5C 153.5,823.5 153.5,821.5 153.5,819.5C 154.5,819.5 155.5,819.5 156.5,819.5 Z"/></g>
<g><path style="opacity:0.094" fill="#202327" d="M 159.5,817.5 C 162.363,820.061 163.696,823.394 163.5,827.5C 162.883,827.389 162.383,827.056 162,826.5C 161.261,823.454 160.428,820.454 159.5,817.5 Z"/></g>
<g><path style="opacity:0.745" fill="#4d4d4f" d="M 776.5,822.5 C 779.5,823.5 781.5,825.5 782.5,828.5C 780.167,826.833 778.167,824.833 776.5,822.5 Z"/></g>
<g><path style="opacity:0.514" fill="#505760" d="M 463.5,819.5 C 461.5,822.167 459.167,824.5 456.5,826.5C 457.878,823.122 460.211,820.789 463.5,819.5 Z"/></g>
<g><path style="opacity:0.047" fill="#2c343e" d="M 674.5,821.5 C 674.267,824.542 673.267,827.208 671.5,829.5C 671.733,826.458 672.733,823.792 674.5,821.5 Z"/></g>
<g><path style="opacity:0.606" fill="#93969c" d="M 414.5,815.5 C 400.833,815.5 387.167,815.5 373.5,815.5C 373.17,834.008 373.503,852.341 374.5,870.5C 373.275,873.151 372.275,872.984 371.5,870C 372.418,851.799 372.751,833.633 372.5,815.5C 386.715,813.597 400.715,813.597 414.5,815.5 Z"/></g>
<g><path style="opacity:0.159" fill="#22252b" d="M 250.5,825.5 C 252.25,826.659 253.25,828.326 253.5,830.5C 253.5,831.5 253.5,832.5 253.5,833.5C 252.129,831.064 251.129,828.397 250.5,825.5 Z"/></g>
<g><path style="opacity:0.965" fill="#e1e1e0" d="M 484.5,815.5 C 487.833,816.5 491.167,817.5 494.5,818.5C 494.973,819.906 495.973,820.573 497.5,820.5C 498.867,822.093 498.534,823.426 496.5,824.5C 482.055,814.064 469.222,815.731 458,829.5C 452.402,840.685 453.569,851.018 461.5,860.5C 463.4,862.616 465.733,863.949 468.5,864.5C 471.638,866.961 475.305,867.961 479.5,867.5C 481.833,867.333 484.167,867.167 486.5,867C 487.416,866.722 488.082,866.222 488.5,865.5C 491.812,865.851 494.145,864.518 495.5,861.5C 496.833,861.5 497.5,862.167 497.5,863.5C 489.341,870.474 480.008,872.307 469.5,869C 466.447,867.473 463.447,865.973 460.5,864.5C 452.682,855.563 450.015,845.23 452.5,833.5C 453.674,832.486 454.34,831.153 454.5,829.5C 455.906,829.027 456.573,828.027 456.5,826.5C 459.167,824.5 461.5,822.167 463.5,819.5C 465.027,819.573 466.027,818.906 466.5,817.5C 472.378,815.935 478.378,815.268 484.5,815.5 Z"/></g>
<g><path style="opacity:0.325" fill="#555962" d="M 456.5,826.5 C 456.573,828.027 455.906,829.027 454.5,829.5C 454.427,827.973 455.094,826.973 456.5,826.5 Z"/></g>
<g><path style="opacity:0.082" fill="#2d343e" d="M 738.5,828.5 C 737.736,831.018 736.736,833.351 735.5,835.5C 734.908,832.369 735.908,830.036 738.5,828.5 Z"/></g>
<g><path style="opacity:0.4" fill="#444953" d="M 454.5,829.5 C 454.34,831.153 453.674,832.486 452.5,833.5C 452.229,831.62 452.896,830.287 454.5,829.5 Z"/></g>
<g><path style="opacity:0.635" fill="#6a6a6b" d="M 219.5,817.5 C 227.019,817.175 234.352,817.508 241.5,818.5C 234.167,818.5 226.833,818.5 219.5,818.5C 219.5,829.5 219.5,840.5 219.5,851.5C 218.167,840.167 218.167,828.833 219.5,817.5 Z"/></g>
<g><path style="opacity:0.01" fill="#0e1013" d="M 241.5,818.5 C 244.945,819.73 247.945,821.73 250.5,824.5C 250.5,824.833 250.5,825.167 250.5,825.5C 248.002,824.088 245.336,822.921 242.5,822C 235.842,821.5 229.175,821.334 222.5,821.5C 221.536,830.844 221.536,840.177 222.5,849.5C 224.336,850.028 226.003,850.694 227.5,851.5C 224.833,851.5 222.167,851.5 219.5,851.5C 219.5,840.5 219.5,829.5 219.5,818.5C 226.833,818.5 234.167,818.5 241.5,818.5 Z"/></g>
<g><path style="opacity:0.588" fill="#606060" d="M 772.5,820.5 C 758.468,816.56 747.968,820.893 741,833.5C 739.675,838.401 739.175,843.401 739.5,848.5C 738.883,848.389 738.383,848.056 738,847.5C 737.333,844.167 737.333,840.833 738,837.5C 742.886,822.804 753.053,816.304 768.5,818C 770.066,818.608 771.4,819.442 772.5,820.5 Z"/></g>
<g><path style="opacity:0.004" fill="#2b2e34" d="M 852.5,838.5 C 849.762,835.754 846.762,833.42 843.5,831.5C 843.56,830.957 843.893,830.624 844.5,830.5C 847.304,832.138 849.971,833.971 852.5,836C 853.598,836.77 853.598,837.603 852.5,838.5 Z"/></g>
<g><path style="opacity:0.747" fill="#8f9398" d="M 934.5,817.5 C 934.631,816.624 934.298,815.957 933.5,815.5C 932.833,828.994 932.167,842.327 931.5,855.5C 931.5,854.167 931.5,852.833 931.5,851.5C 930.905,840.214 930.571,828.88 930.5,817.5C 931.375,815.227 933.042,814.227 935.5,814.5C 935.737,815.791 935.404,816.791 934.5,817.5 Z"/></g>
<g><path style="opacity:0.031" fill="#1b1b1d" d="M 163.5,827.5 C 165.32,830.538 166.986,833.871 168.5,837.5C 169.466,839.396 169.799,841.396 169.5,843.5C 167.559,840.803 166.059,837.803 165,834.5C 164.338,832.187 163.838,829.854 163.5,827.5 Z"/></g>
<g><path style="opacity:0.29" fill="#494b4e" d="M 617.5,868.5 C 618.117,868.611 618.617,868.944 619,869.5C 619.5,851.503 619.667,833.503 619.5,815.5C 618.5,815.5 617.5,815.5 616.5,815.5C 616.5,826.5 616.5,837.5 616.5,848.5C 615.505,837.346 615.172,826.012 615.5,814.5C 617.167,814.5 618.833,814.5 620.5,814.5C 620.833,833.845 620.5,853.178 619.5,872.5C 617.889,871.68 617.222,870.346 617.5,868.5 Z"/></g>
<g><path style="opacity:0.184" fill="#272b31" d="M 832.5,821.5 C 831.847,828.566 834.847,832.9 841.5,834.5C 841.53,835.497 841.03,836.164 840,836.5C 833.057,833.466 830.557,828.466 832.5,821.5 Z"/></g>
<g><path style="opacity:0.075" fill="#363d47" d="M 671.5,829.5 C 671.223,833.644 669.89,837.311 667.5,840.5C 668.065,836.463 669.399,832.797 671.5,829.5 Z"/></g>
<g><path style="opacity:0.995" fill="#e6e6e6" d="M 843.5,831.5 C 846.762,833.42 849.762,835.754 852.5,838.5C 858.431,849.285 856.765,858.785 847.5,867C 845.593,868.122 843.593,868.955 841.5,869.5C 836.706,870.097 832.373,869.43 828.5,867.5C 832.966,867.514 837.632,867.348 842.5,867C 844.119,866.764 845.119,865.931 845.5,864.5C 847.833,864.167 849.167,862.833 849.5,860.5C 851.104,859.713 851.771,858.38 851.5,856.5C 854.065,852.801 854.065,849.135 851.5,845.5C 850.345,841.668 848.012,838.668 844.5,836.5C 843.71,835.599 842.71,834.932 841.5,834.5C 834.847,832.9 831.847,828.566 832.5,821.5C 833.906,821.027 834.573,820.027 834.5,818.5C 837.623,816.885 840.956,815.885 844.5,815.5C 844.5,816.5 844.5,817.5 844.5,818.5C 839.106,817.398 836.106,819.565 835.5,825C 836.496,829.158 839.163,831.325 843.5,831.5 Z"/></g>
<g><path style="opacity:0.663" fill="#70747b" d="M 253.5,830.5 C 254.638,833.304 254.805,836.304 254,839.5C 253.878,841.437 253.045,842.77 251.5,843.5C 252.787,840.302 253.453,836.969 253.5,833.5C 253.5,832.5 253.5,831.5 253.5,830.5 Z"/></g>
<g><path style="opacity:0.135" fill="#181a1d" d="M 844.5,836.5 C 848.012,838.668 850.345,841.668 851.5,845.5C 849.3,842.142 846.3,839.642 842.5,838C 843.416,837.722 844.082,837.222 844.5,836.5 Z"/></g>
<g><path style="opacity:0.029" fill="#3f464e" d="M 452.5,833.5 C 450.015,845.23 452.682,855.563 460.5,864.5C 459.883,864.611 459.383,864.944 459,865.5C 450.975,855.874 448.808,845.207 452.5,833.5 Z"/></g>
<g><path style="opacity:0.071" fill="#2f3640" d="M 667.5,840.5 C 667.267,843.542 666.267,846.208 664.5,848.5C 664.733,845.458 665.733,842.792 667.5,840.5 Z"/></g>
<g><path style="opacity:0.51" fill="#474d55" d="M 251.5,843.5 C 251.573,845.027 250.906,846.027 249.5,846.5C 249.427,844.973 250.094,843.973 251.5,843.5 Z"/></g>
<g><path style="opacity:0.294" fill="#252d38" d="M 577.5,818.5 C 577.17,836.341 577.503,854.008 578.5,871.5C 578.44,872.043 578.107,872.376 577.5,872.5C 576.173,854.338 576.173,836.338 577.5,818.5 Z"/></g>
<g><path style="opacity:0.004" fill="#20272f" d="M 929.5,847.5 C 930.525,847.897 930.692,848.563 930,849.5C 929.536,848.906 929.369,848.239 929.5,847.5 Z"/></g>
<g><path style="opacity:0.569" fill="#5e626a" d="M 248.5,847.5 C 248.027,848.906 247.027,849.573 245.5,849.5C 245.973,848.094 246.973,847.427 248.5,847.5 Z"/></g>
<g><path style="opacity:0.784" fill="#737475" d="M 252.5,822.5 C 258.514,828.035 260.014,834.701 257,842.5C 255.29,846.219 252.79,849.386 249.5,852C 245.189,853.663 241.189,855.497 237.5,857.5C 236.522,857.189 235.855,856.522 235.5,855.5C 254.766,851.3 260.432,840.3 252.5,822.5 Z"/></g>
<g><path style="opacity:1" fill="#d5d5d5" d="M 294.5,816.5 C 308.504,816.333 322.504,816.5 336.5,817C 329.842,817.5 323.175,817.666 316.5,817.5C 317.132,835.736 316.466,853.736 314.5,871.5C 313.504,857.343 313.171,843.01 313.5,828.5C 313.746,824.849 313.746,821.349 313.5,818C 307.085,817.21 300.752,817.376 294.5,818.5C 294.5,817.833 294.5,817.167 294.5,816.5 Z"/></g>
<g><path style="opacity:0.584" fill="#545962" d="M 245.5,849.5 C 243.562,851.163 241.228,851.829 238.5,851.5C 240.599,850.388 242.933,849.721 245.5,849.5 Z"/></g>
<g><path style="opacity:0.588" fill="#54595e" d="M 851.5,845.5 C 854.065,849.135 854.065,852.801 851.5,856.5C 852.105,852.685 852.105,849.018 851.5,845.5 Z"/></g>
<g><path style="opacity:0.603" fill="#818588" d="M 896.5,855.5 C 895.833,842.327 895.167,828.994 894.5,815.5C 893.5,834.155 893.167,852.821 893.5,871.5C 892.469,872.38 891.802,871.88 891.5,870C 892.827,852.507 892.827,835.007 891.5,817.5C 891.608,816.558 891.941,815.725 892.5,815C 894.5,814.333 896.5,814.333 898.5,815C 896.529,828.253 895.862,841.753 896.5,855.5 Z"/></g>
<g><path style="opacity:0.157" fill="#363e48" d="M 148.5,839.5 C 145.398,849.487 141.731,859.153 137.5,868.5C 139.875,858.751 142.541,849.085 145.5,839.5C 146.5,839.5 147.5,839.5 148.5,839.5 Z"/></g>
<g><path style="opacity:0.963" fill="#dcdcdd" d="M 159.5,817.5 C 160.428,820.454 161.261,823.454 162,826.5C 162.383,827.056 162.883,827.389 163.5,827.5C 163.838,829.854 164.338,832.187 165,834.5C 166.059,837.803 167.559,840.803 169.5,843.5C 169.523,845.927 170.023,848.26 171,850.5C 172.059,853.803 173.559,856.803 175.5,859.5C 175.56,862.341 176.226,865.007 177.5,867.5C 177.715,869.179 177.048,870.179 175.5,870.5C 174.167,866.833 172.833,863.167 171.5,859.5C 162.676,858.343 153.676,858.176 144.5,859C 142.915,863.003 141.915,867.17 141.5,871.5C 140.167,871.5 138.833,871.5 137.5,871.5C 137.5,870.5 137.5,869.5 137.5,868.5C 141.731,859.153 145.398,849.487 148.5,839.5C 151.334,835.336 153.001,830.669 153.5,825.5C 154.87,823.75 155.87,821.75 156.5,819.5C 157.222,818.449 158.222,817.782 159.5,817.5 Z M 157.5,829.5 C 161.293,837.095 163.96,845.095 165.5,853.5C 160.167,853.5 154.833,853.5 149.5,853.5C 150.142,850.865 150.809,848.198 151.5,845.5C 151.489,843.955 151.156,842.622 150.5,841.5C 152.204,837.684 153.537,833.684 154.5,829.5C 155.5,829.5 156.5,829.5 157.5,829.5 Z M 165.5,853.5 C 167.698,853.409 168.031,854.075 166.5,855.5C 160.833,855.5 155.167,855.5 149.5,855.5C 154.833,854.833 160.167,854.167 165.5,853.5 Z"/></g>
<g><path style="opacity:0.094" fill="#282d35" d="M 166.5,855.5 C 168.031,854.075 167.698,853.409 165.5,853.5C 163.96,845.095 161.293,837.095 157.5,829.5C 157.343,828.127 157.51,826.793 158,825.5C 162.323,834.968 166.156,844.635 169.5,854.5C 168.675,855.386 167.675,855.719 166.5,855.5 Z"/></g>
<g><path style="opacity:0.125" fill="#1a1b1c" d="M 169.5,843.5 C 171.32,846.538 172.986,849.871 174.5,853.5C 175.466,855.396 175.799,857.396 175.5,859.5C 173.559,856.803 172.059,853.803 171,850.5C 170.023,848.26 169.523,845.927 169.5,843.5 Z"/></g>
<g><path style="opacity:0.094" fill="#2c2f34" d="M 150.5,841.5 C 151.156,842.622 151.489,843.955 151.5,845.5C 150.809,848.198 150.142,850.865 149.5,853.5C 154.833,853.5 160.167,853.5 165.5,853.5C 160.167,854.167 154.833,854.833 149.5,855.5C 148.5,855.5 147.5,855.5 146.5,855.5C 147.831,850.845 149.164,846.179 150.5,841.5 Z"/></g>
<g><path style="opacity:1" fill="#b6b8bc" d="M 582.5,820.5 C 581.833,820.167 581.167,819.833 580.5,819.5C 580.217,818.711 579.717,818.044 579,817.5C 578.171,835.338 578.338,853.005 579.5,870.5C 579.5,871.167 579.167,871.5 578.5,871.5C 577.503,854.008 577.17,836.341 577.5,818.5C 577.343,817.127 577.51,815.793 578,814.5C 580.127,816.114 581.627,818.114 582.5,820.5 Z"/></g>
<g><path style="opacity:0.02" fill="#3e454e" d="M 664.5,848.5 C 663.776,851.843 662.943,855.176 662,858.5C 661.617,859.056 661.117,859.389 660.5,859.5C 660.782,855.32 662.115,851.653 664.5,848.5 Z"/></g>
<g><path style="opacity:0.098" fill="#282f38" d="M 931.5,851.5 C 931.5,852.833 931.5,854.167 931.5,855.5C 922.5,855.5 913.5,855.5 904.5,855.5C 904.783,854.711 905.283,854.044 906,853.5C 913.832,854.728 921.999,854.728 930.5,853.5C 929.019,852.056 929.352,851.389 931.5,851.5 Z"/></g>
<g><path style="opacity:0.953" fill="#9da0a6" d="M 242.5,814.5 C 242.5,814.833 242.5,815.167 242.5,815.5C 233.833,815.5 225.167,815.5 216.5,815.5C 216.17,834.008 216.503,852.341 217.5,870.5C 217.5,870.833 217.5,871.167 217.5,871.5C 216.833,871.5 216.167,871.5 215.5,871.5C 214.503,852.674 214.17,833.674 214.5,814.5C 223.787,813.916 233.121,813.916 242.5,814.5 Z"/></g>
<g><path style="opacity:0.024" fill="#111215" d="M 248.5,817.5 C 258.298,822.004 262.131,829.67 260,840.5C 256.534,849.8 250.034,855.8 240.5,858.5C 242.177,862.93 243.677,867.263 245,871.5C 242.462,873.825 240.295,873.491 238.5,870.5C 238.833,870.5 239.167,870.5 239.5,870.5C 240.708,871.782 242.042,871.782 243.5,870.5C 243.058,869.261 242.391,868.261 241.5,867.5C 240.17,864.197 238.837,860.864 237.5,857.5C 241.189,855.497 245.189,853.663 249.5,852C 252.79,849.386 255.29,846.219 257,842.5C 260.014,834.701 258.514,828.035 252.5,822.5C 251.25,820.846 249.916,819.179 248.5,817.5 Z"/></g>
<g><path style="opacity:0.702" fill="#e1e1e1" d="M 617.5,868.5 C 605.746,854.013 593.746,839.679 581.5,825.5C 580.833,840.661 580.167,855.661 579.5,870.5C 579.333,854.83 579.5,839.163 580,823.5C 581.511,822.436 581.677,821.103 580.5,819.5C 581.167,819.833 581.833,820.167 582.5,820.5C 583.072,822.255 583.906,823.922 585,825.5C 594.716,836.378 604.216,847.378 613.5,858.5C 614.325,859.386 615.325,859.719 616.5,859.5C 616.5,855.833 616.5,852.167 616.5,848.5C 616.5,837.5 616.5,826.5 616.5,815.5C 617.5,815.5 618.5,815.5 619.5,815.5C 619.667,833.503 619.5,851.503 619,869.5C 618.617,868.944 618.117,868.611 617.5,868.5 Z"/></g>
<g><path style="opacity:0.154" fill="#121317" d="M 232.5,855.5 C 234.893,860.348 236.893,865.348 238.5,870.5C 237.542,870.047 236.708,869.381 236,868.5C 234.875,865.11 233.375,861.943 231.5,859C 228.183,858.502 224.85,858.335 221.5,858.5C 221.666,862.846 221.499,867.179 221,871.5C 219.322,873.475 217.488,873.475 215.5,871.5C 216.167,871.5 216.833,871.5 217.5,871.5C 219.446,866.604 220.113,861.271 219.5,855.5C 223.833,855.5 228.167,855.5 232.5,855.5 Z"/></g>
<g><path style="opacity:1" fill="#d2d3d3" d="M 414.5,816.5 C 401.765,817.175 388.931,817.842 376,818.5C 375.333,830.833 375.333,843.167 376,855.5C 376.333,855.833 376.667,856.167 377,856.5C 382.436,855.643 387.936,854.976 393.5,854.5C 393.5,855.833 393.5,857.167 393.5,858.5C 387.5,858.5 381.5,858.5 375.5,858.5C 375.5,861.833 375.5,865.167 375.5,868.5C 376.5,868.5 377.5,868.5 378.5,868.5C 390.5,868.5 402.5,868.5 414.5,868.5C 401.542,870.481 388.209,871.148 374.5,870.5C 374.5,852.5 374.5,834.5 374.5,816.5C 387.833,816.5 401.167,816.5 414.5,816.5 Z"/></g>
<g><path style="opacity:0.82" fill="#777776" d="M 742.5,856.5 C 744.5,857.833 746.167,859.5 747.5,861.5C 744.833,860.833 743.167,859.167 742.5,856.5 Z"/></g>
<g><path style="opacity:0.05" fill="#323a44" d="M 313.5,828.5 C 313.171,843.01 313.504,857.343 314.5,871.5C 314.44,872.043 314.107,872.376 313.5,872.5C 312.825,858.27 312.159,844.104 311.5,830C 312.044,829.283 312.711,828.783 313.5,828.5 Z"/></g>
<g><path style="opacity:1" fill="#d4d4d2" d="M 786.5,852.5 C 786.409,854.698 787.075,855.031 788.5,853.5C 787.111,856.607 785.445,859.607 783.5,862.5C 784.93,865.433 786.93,867.933 789.5,870C 788.167,870.667 786.833,870.667 785.5,870C 783.707,868.22 782.04,866.387 780.5,864.5C 769.586,872.11 758.586,872.443 747.5,865.5C 748.11,864.609 748.443,863.609 748.5,862.5C 758.365,869.284 768.031,869.117 777.5,862C 775.077,860.429 773.744,858.263 773.5,855.5C 774.833,855.5 776.167,855.5 777.5,855.5C 779.833,860.833 782.167,860.833 784.5,855.5C 784.427,853.973 785.094,852.973 786.5,852.5 Z"/></g>
<g><path style="opacity:0.592" fill="#62656a" d="M 777.5,855.5 C 778.794,856.29 779.961,857.29 781,858.5C 782.039,857.29 783.206,856.29 784.5,855.5C 782.167,860.833 779.833,860.833 777.5,855.5 Z"/></g>
<g><path style="opacity:0.337" fill="#3d424a" d="M 851.5,856.5 C 851.771,858.38 851.104,859.713 849.5,860.5C 849.66,858.847 850.326,857.514 851.5,856.5 Z"/></g>
<g><path style="opacity:0.42" fill="#686d72" d="M 497.5,863.5 C 497.5,862.167 496.833,861.5 495.5,861.5C 496.991,858.77 498.325,858.937 499.5,862C 498.956,862.717 498.289,863.217 497.5,863.5 Z"/></g>
<g><path style="opacity:0.09" fill="#2d333c" d="M 735.5,835.5 C 733.538,846.267 736.204,855.601 743.5,863.5C 742.883,863.611 742.383,863.944 742,864.5C 740.245,861.956 738.245,859.623 736,857.5C 734.402,850.039 734.236,842.705 735.5,835.5 Z"/></g>
<g><path style="opacity:0.991" fill="#e0e1e1" d="M 678.5,818.5 C 684.233,835.696 690.566,852.696 697.5,869.5C 696.965,871.271 696.131,871.604 695,870.5C 693.887,866.492 692.387,862.659 690.5,859C 681.506,858.5 672.506,858.334 663.5,858.5C 662.444,862.168 661.278,865.835 660,869.5C 659.292,870.381 658.458,871.047 657.5,871.5C 656.957,871.44 656.624,871.107 656.5,870.5C 657.747,868.677 658.414,866.677 658.5,864.5C 659.931,863.22 660.598,861.553 660.5,859.5C 661.117,859.389 661.617,859.056 662,858.5C 662.943,855.176 663.776,851.843 664.5,848.5C 666.267,846.208 667.267,843.542 667.5,840.5C 669.89,837.311 671.223,833.644 671.5,829.5C 673.267,827.208 674.267,824.542 674.5,821.5C 675.751,819.618 676.918,817.618 678,815.5C 678.483,816.448 678.649,817.448 678.5,818.5 Z M 681.5,835.5 C 680.892,838.062 681.058,840.729 682,843.5C 684.231,846.795 686.064,850.295 687.5,854C 683.312,854.176 679.312,854.676 675.5,855.5C 672.552,855.223 669.719,855.556 667,856.5C 666.308,855.975 665.808,855.308 665.5,854.5C 669.278,845.276 672.778,835.943 676,826.5C 676.893,825.289 677.726,825.289 678.5,826.5C 679.801,829.427 680.801,832.427 681.5,835.5 Z"/></g>
<g><path style="opacity:0.02" fill="#282c33" d="M 681.5,835.5 C 684.354,841.897 686.687,848.564 688.5,855.5C 684.167,855.5 679.833,855.5 675.5,855.5C 679.312,854.676 683.312,854.176 687.5,854C 686.064,850.295 684.231,846.795 682,843.5C 681.058,840.729 680.892,838.062 681.5,835.5 Z"/></g>
<g><path style="opacity:0.376" fill="#47484b" d="M 171.5,859.5 C 170.167,859.5 168.833,859.5 167.5,859.5C 160.8,859.17 154.134,859.503 147.5,860.5C 145.283,864.252 143.283,867.919 141.5,871.5C 141.915,867.17 142.915,863.003 144.5,859C 153.676,858.176 162.676,858.343 171.5,859.5 Z"/></g>
<g><path style="opacity:0.098" fill="#2c333d" d="M 660.5,859.5 C 660.598,861.553 659.931,863.22 658.5,864.5C 658.402,862.447 659.069,860.78 660.5,859.5 Z"/></g>
<g><path style="opacity:0.584" fill="#5e636b" d="M 849.5,860.5 C 849.167,862.833 847.833,864.167 845.5,864.5C 846.5,862.833 847.833,861.5 849.5,860.5 Z"/></g>
<g><path style="opacity:0.625" fill="#69696a" d="M 232.5,855.5 C 228.167,855.5 223.833,855.5 219.5,855.5C 220.113,861.271 219.446,866.604 217.5,871.5C 217.5,871.167 217.5,870.833 217.5,870.5C 218.488,865.36 218.821,860.026 218.5,854.5C 223.363,854.181 228.03,854.514 232.5,855.5 Z"/></g>
<g><path style="opacity:0.8" fill="#72767e" d="M 495.5,861.5 C 494.145,864.518 491.812,865.851 488.5,865.5C 490.663,863.917 492.996,862.584 495.5,861.5 Z"/></g>
<g><path style="opacity:0.071" fill="#2f343c" d="M 488.5,865.5 C 488.082,866.222 487.416,866.722 486.5,867C 484.167,867.167 481.833,867.333 479.5,867.5C 475.305,867.961 471.638,866.961 468.5,864.5C 468.435,864.062 468.601,863.728 469,863.5C 475.19,866.702 481.69,867.369 488.5,865.5 Z"/></g>
<g><path style="opacity:0.045" fill="#51575e" d="M 845.5,864.5 C 845.119,865.931 844.119,866.764 842.5,867C 837.632,867.348 832.966,867.514 828.5,867.5C 828.47,866.503 828.97,865.836 830,865.5C 835.281,866.895 840.448,866.561 845.5,864.5 Z"/></g>
<g><path style="opacity:0.073" fill="#1d2026" d="M 167.5,859.5 C 168.833,859.5 170.167,859.5 171.5,859.5C 172.833,863.167 174.167,866.833 175.5,870.5C 175.5,870.833 175.5,871.167 175.5,871.5C 174.265,871.279 173.265,870.612 172.5,869.5C 171.768,865.597 170.101,862.263 167.5,859.5 Z"/></g>
<g><path style="opacity:0.157" fill="#141516" d="M 175.5,859.5 C 178.363,862.061 179.696,865.394 179.5,869.5C 178.833,868.833 178.167,868.167 177.5,867.5C 176.226,865.007 175.56,862.341 175.5,859.5 Z"/></g>
<g><path style="opacity:0.004" fill="#aaabaf" d="M 414.5,868.5 C 402.5,868.5 390.5,868.5 378.5,868.5C 389.526,867.803 400.692,867.136 412,866.5C 413.225,866.862 414.391,867.362 415.5,868C 415.272,868.399 414.938,868.565 414.5,868.5 Z"/></g>
<g><path style="opacity:0.71" fill="#767877" d="M 241.5,867.5 C 242.391,868.261 243.058,869.261 243.5,870.5C 242.042,871.782 240.708,871.782 239.5,870.5C 241.048,870.179 241.715,869.179 241.5,867.5 Z"/></g>
<g><path style="opacity:0.027" fill="#252c34" d="M 658.5,864.5 C 658.414,866.677 657.747,868.677 656.5,870.5C 656.624,871.107 656.957,871.44 657.5,871.5C 656.528,872.751 655.861,872.418 655.5,870.5C 656.001,868.164 657.001,866.164 658.5,864.5 Z"/></g>
<g><path style="opacity:0.976" fill="#9e9f9f" d="M 828.5,867.5 C 832.373,869.43 836.706,870.097 841.5,869.5C 837.03,870.486 832.363,870.819 827.5,870.5C 827.263,869.209 827.596,868.209 828.5,867.5 Z"/></g>
<g><path style="opacity:1" fill="#7a7b7a" d="M 177.5,867.5 C 178.167,868.167 178.833,868.833 179.5,869.5C 178.817,871.176 177.483,871.843 175.5,871.5C 175.5,871.167 175.5,870.833 175.5,870.5C 177.048,870.179 177.715,869.179 177.5,867.5 Z"/></g>
</svg>
